<?xml version="1.0" encoding="utf-8"?>
<!-- Generator: Adobe Illustrator 22.0.1, SVG Export Plug-In . SVG Version: 6.00 Build 0)  -->
<svg version="1.1" id="Simpl_logo" xmlns="http://www.w3.org/2000/svg" xmlns:xlink="http://www.w3.org/1999/xlink" x="0px" y="0px"
	 viewBox="0 0 128 128" style="enable-background:new 0 0 128 128;" xml:space="preserve">
<style type="text/css">
	.st0{fill:#00D3C1;}
</style>
<path class="st0" d="M98.8,34.7l12-12l-2.6-2.6C87.2-1,52.9-1,31.8,20.1c-20.2,20.2-21,52.5-2.5,73.7l-12,12l2.6,2.6
	c21.1,21.1,55.4,21.1,76.5,0C116.5,88.2,117.4,55.9,98.8,34.7z M37,25.3C54.3,8,82,7.1,100.3,22.8l-6.9,6.9
	c-14.6-12-36.1-11.1-49.7,2.5c-13.6,13.6-14.4,35.2-2.5,49.7l-6.7,6.7C18.9,70.3,19.7,42.6,37,25.3z M91.1,103.2
	c-17.3,17.3-45,18.2-63.3,2.5l6.9-6.9c14.6,12,36.1,11.1,49.7-2.5C98,82.8,98.8,61.2,86.9,46.6l6.7-6.7
	C109.3,58.2,108.4,85.9,91.1,103.2z"/>
</svg>
